<?xml version="1.0" encoding="UTF-8"?>
<svg width="17px" height="17px" viewBox="0 0 17 17" version="1.1" xmlns="http://www.w3.org/2000/svg" xmlns:xlink="http://www.w3.org/1999/xlink">
    <!-- Generator: Sketch 47.1 (45422) - http://www.bohemiancoding.com/sketch -->
    <title>icon/burger</title>
    <desc>Created with Sketch.</desc>
    <defs></defs>
    <g id="Symbols" stroke="none" stroke-width="1" fill="none" fill-rule="evenodd">
        <g id="icon/burger">
            <g>
                <rect id="bounds" x="0" y="0" width="17" height="17"></rect>
                <path d="M1,4.25 L16,4.25 C16.4142136,4.25 16.75,3.91421356 16.75,3.5 C16.75,3.08578644 16.4142136,2.75 16,2.75 L1,2.75 C0.585786438,2.75 0.25,3.08578644 0.25,3.5 C0.25,3.91421356 0.585786438,4.25 1,4.25 Z" id="Line-3" fill="#FFFFFF" fill-rule="nonzero"></path>
                <path d="M1,9.25 L16,9.25 C16.4142136,9.25 16.75,8.91421356 16.75,8.5 C16.75,8.08578644 16.4142136,7.75 16,7.75 L1,7.75 C0.585786438,7.75 0.25,8.08578644 0.25,8.5 C0.25,8.91421356 0.585786438,9.25 1,9.25 Z" id="Line-3-Copy" fill="#FFFFFF" fill-rule="nonzero"></path>
                <path d="M1,14.25 L16,14.25 C16.4142136,14.25 16.75,13.9142136 16.75,13.5 C16.75,13.0857864 16.4142136,12.75 16,12.75 L1,12.75 C0.585786438,12.75 0.25,13.0857864 0.25,13.5 C0.25,13.9142136 0.585786438,14.25 1,14.25 Z" id="Line-3-Copy-2" fill="#FFFFFF" fill-rule="nonzero"></path>
            </g>
        </g>
    </g>
</svg>