<?xml version="1.0" encoding="UTF-8"?>
<svg width="23px" height="23px" viewBox="0 0 23 23" version="1.1" xmlns="http://www.w3.org/2000/svg" xmlns:xlink="http://www.w3.org/1999/xlink">
    <!-- Generator: Sketch 47.1 (45422) - http://www.bohemiancoding.com/sketch -->
    <title>calendar</title>
    <desc>Created with Sketch.</desc>
    <defs>
        <filter x="-29.4%" y="-23.5%" width="158.8%" height="158.8%" filterUnits="objectBoundingBox" id="filter-1">
            <feOffset dx="0" dy="1" in="SourceAlpha" result="shadowOffsetOuter1"></feOffset>
            <feGaussianBlur stdDeviation="1.5" in="shadowOffsetOuter1" result="shadowBlurOuter1"></feGaussianBlur>
            <feColorMatrix values="0 0 0 0 0   0 0 0 0 0   0 0 0 0 0  0 0 0 0.2 0" type="matrix" in="shadowBlurOuter1" result="shadowMatrixOuter1"></feColorMatrix>
            <feMerge>
                <feMergeNode in="shadowMatrixOuter1"></feMergeNode>
                <feMergeNode in="SourceGraphic"></feMergeNode>
            </feMerge>
        </filter>
    </defs>
    <g id="Symbols" stroke="none" stroke-width="1" fill="none" fill-rule="evenodd">
        <g id="small-event" transform="translate(-47.000000, -98.000000)" fill="#FFFFFF">
            <g id="content">
                <g transform="translate(50.000000, 90.000000)">
                    <g id="calendar" filter="url(#filter-1)" transform="translate(0.000000, 10.000000)">
                        <path d="M13.9157158,2.06956522 L17,2.06956522 L17,16.5565217 L0,16.5565217 L0,2.06956522 L3.12071392,2.06956522 L3.12071392,5.05142839 L6.44785678,5.05142839 L6.44785678,2.06956522 L10.5885729,2.06956522 L10.5885729,5.05142839 L13.9157158,5.05142839 L13.9157158,2.06956522 Z M3,7.24347826 L3,9.31304348 L5,9.31304348 L5,7.24347826 L3,7.24347826 Z M3,11.3826087 L3,13.4521739 L5,13.4521739 L5,11.3826087 L3,11.3826087 Z M7,7.24347826 L7,9.31304348 L9,9.31304348 L9,7.24347826 L7,7.24347826 Z M7,11.3826087 L7,13.4521739 L9,13.4521739 L9,11.3826087 L7,11.3826087 Z M11,7.24347826 L11,9.31304348 L13,9.31304348 L13,7.24347826 L11,7.24347826 Z M4,8.8817842e-16 L5.5,8.8817842e-16 L5.5,4.13913043 L4,4.13913043 L4,8.8817842e-16 Z M11.5,8.8817842e-16 L13,8.8817842e-16 L13,4.13913043 L11.5,4.13913043 L11.5,8.8817842e-16 Z"></path>
                    </g>
                </g>
            </g>
        </g>
    </g>
</svg>