<?xml version="1.0" encoding="UTF-8"?>
<svg width="17px" height="17px" viewBox="0 0 17 17" version="1.1" xmlns="http://www.w3.org/2000/svg" xmlns:xlink="http://www.w3.org/1999/xlink">
    <!-- Generator: Sketch 47.1 (45422) - http://www.bohemiancoding.com/sketch -->
    <title>icon/clock</title>
    <desc>Created with Sketch.</desc>
    <defs></defs>
    <g id="Symbols" stroke="none" stroke-width="1" fill="none" fill-rule="evenodd">
        <g id="icon/clock">
            <g>
                <rect id="bounds" x="0" y="0" width="17" height="17"></rect>
                <path d="M8.5,16.75 C3.94365081,16.75 0.25,13.0563492 0.25,8.5 C0.25,3.94365081 3.94365081,0.25 8.5,0.25 C13.0563492,0.25 16.75,3.94365081 16.75,8.5 C16.75,13.0563492 13.0563492,16.75 8.5,16.75 Z M8.5,15.25 C12.2279221,15.25 15.25,12.2279221 15.25,8.5 C15.25,4.77207794 12.2279221,1.75 8.5,1.75 C4.77207794,1.75 1.75,4.77207794 1.75,8.5 C1.75,12.2279221 4.77207794,15.25 8.5,15.25 Z" id="Oval" fill="#FFFFFF" fill-rule="nonzero"></path>
                <path d="M9.25333154,4.40039122 C9.25333154,3.98617766 8.9175451,3.65039122 8.50333154,3.65039122 C8.08911798,3.65039122 7.75333154,3.98617766 7.75333154,4.40039122 L7.75333154,8.91318345 L10.6946634,11.8545153 C10.9875567,12.1474086 11.4624304,12.1474086 11.7553236,11.8545153 C12.0482168,11.5616221 12.0482168,11.0867484 11.7553236,10.7938552 L9.25333154,8.2918631 L9.25333154,4.40039122 Z" id="Path-2" fill="#FFFFFF" fill-rule="nonzero"></path>
            </g>
        </g>
    </g>
</svg>