<?xml version="1.0" encoding="UTF-8"?>
<svg width="30px" height="30px" viewBox="0 0 30 30" version="1.1" xmlns="http://www.w3.org/2000/svg" xmlns:xlink="http://www.w3.org/1999/xlink">
    <!-- Generator: Sketch 47.1 (45422) - http://www.bohemiancoding.com/sketch -->
    <title>instagram</title>
    <desc>Created with Sketch.</desc>
    <defs></defs>
    <g id="Symbols" stroke="none" stroke-width="1" fill="none" fill-rule="evenodd">
        <g id="footer" transform="translate(-1230.000000, -220.000000)" fill="#FFFFFF">
            <g id="social">
                <g transform="translate(1122.000000, 178.000000)">
                    <path d="M108,42 L138,42 L138,72 L108,72 L108,42 Z M122.996753,48.8181818 C120.775974,48.8181818 120.496753,48.827924 119.623377,48.8668928 C118.753247,48.9058616 118.159091,49.0454996 117.63961,49.2468383 C117.100649,49.4546717 116.646104,49.7371953 116.191558,50.191831 C115.737013,50.6464667 115.457792,51.1043497 115.246753,51.6401703 C115.045455,52.1597539 114.905844,52.7540277 114.866883,53.6275776 C114.827922,54.4978802 114.818182,54.7771564 114.818182,56.9983763 C114.818182,59.2195962 114.827922,59.4988724 114.866883,60.3724224 C114.905844,61.2427249 115.045455,61.8369987 115.246753,62.3598297 C115.454545,62.8988977 115.737013,63.3535333 116.191558,63.808169 C116.646104,64.2628047 117.103896,64.5420809 117.63961,64.7531617 C118.159091,64.9545004 118.753247,65.0941384 119.626623,65.1331072 C120.5,65.172076 120.775974,65.1818182 123,65.1818182 C125.224026,65.1818182 125.5,65.172076 126.373377,65.1331072 C127.243506,65.0941384 127.837662,64.9545004 128.36039,64.7531617 C128.899351,64.5453283 129.353896,64.2628047 129.808442,63.808169 C130.262987,63.3535333 130.542208,62.8956503 130.753247,62.3598297 C130.954545,61.8402461 131.094156,61.2459723 131.133117,60.3724224 C131.172078,59.4988724 131.181818,59.2228436 131.181818,56.9983763 C131.181818,54.773909 131.172078,54.4978802 131.133117,53.6243302 C131.094156,52.7540277 130.954545,52.1597539 130.753247,51.6369229 C130.545455,51.0978549 130.262987,50.6432193 129.808442,50.1885836 C129.353896,49.7339479 128.896104,49.4546717 128.36039,49.2435909 C127.840909,49.0422523 127.246753,48.9026142 126.373377,48.8636454 C125.496753,48.827924 125.217532,48.8181818 122.996753,48.8181818 Z M122.996753,50.2925003 C125.181818,50.2925003 125.438312,50.3022425 126.301948,50.3412113 C127.100649,50.3769327 127.532468,50.510076 127.821429,50.6237349 C128.204545,50.7731152 128.477273,50.9484746 128.762987,51.2342456 C129.048701,51.5200166 129.227273,51.792798 129.373377,52.1759909 C129.483766,52.4650093 129.62013,52.8969132 129.655844,53.695773 C129.694805,54.5595807 129.704545,54.8161251 129.704545,57.0016237 C129.704545,59.1871223 129.694805,59.4436667 129.655844,60.3074744 C129.62013,61.1063342 129.487013,61.5382381 129.373377,61.8272565 C129.224026,62.2104494 129.048701,62.4832308 128.762987,62.7690018 C128.477273,63.0547728 128.204545,63.2333796 127.821429,63.3795125 C127.532468,63.489924 127.100649,63.6263147 126.301948,63.6620361 C125.438312,63.7010049 125.181818,63.7107471 122.996753,63.7107471 C120.811688,63.7107471 120.555195,63.7010049 119.691558,63.6620361 C118.892857,63.6263147 118.461039,63.4931714 118.172078,63.3795125 C117.788961,63.2301322 117.516234,63.0547728 117.230519,62.7690018 C116.944805,62.4832308 116.766234,62.2104494 116.62013,61.8272565 C116.50974,61.5382381 116.373377,61.1063342 116.337662,60.3074744 C116.298701,59.4436667 116.288961,59.1871223 116.288961,57.0016237 C116.288961,54.8161251 116.298701,54.5595807 116.337662,53.695773 C116.373377,52.8969132 116.506494,52.4650093 116.62013,52.1759909 C116.769481,51.792798 116.944805,51.5200166 117.230519,51.2342456 C117.516234,50.9484746 117.788961,50.7698678 118.172078,50.6237349 C118.461039,50.5133234 118.892857,50.3769327 119.691558,50.3412113 C120.555195,50.2989951 120.811688,50.2925003 122.996753,50.2925003 L122.996753,50.2925003 Z M123,59.6964689 C121.510522,59.6964689 120.303531,58.4894781 120.303531,57 C120.303531,55.5105219 121.510522,54.3035311 123,54.3035311 C124.489478,54.3035311 125.696469,55.5105219 125.696469,57 C125.696469,58.4894781 124.489478,59.6964689 123,59.6964689 Z M123,52.8461538 C120.708001,52.8461538 118.846154,54.7047913 118.846154,57 C118.846154,59.2952087 120.708001,61.1538462 123,61.1538462 C125.291999,61.1538462 127.153846,59.2919986 127.153846,57 C127.153846,54.7080014 125.291999,52.8461538 123,52.8461538 Z M127.405594,53.6013986 C127.961741,53.6013986 128.412587,53.1505525 128.412587,52.5944056 C128.412587,52.0382587 127.961741,51.5874126 127.405594,51.5874126 C126.849448,51.5874126 126.398601,52.0382587 126.398601,52.5944056 C126.398601,53.1505525 126.849448,53.6013986 127.405594,53.6013986 Z" id="instagram"></path>
                </g>
            </g>
        </g>
    </g>
</svg>