<?xml version="1.0" encoding="UTF-8"?>
<svg width="17px" height="17px" viewBox="0 0 17 17" version="1.1" xmlns="http://www.w3.org/2000/svg" xmlns:xlink="http://www.w3.org/1999/xlink">
    <!-- Generator: Sketch 47.1 (45422) - http://www.bohemiancoding.com/sketch -->
    <title>icon/location</title>
    <desc>Created with Sketch.</desc>
    <defs></defs>
    <g id="Symbols" stroke="none" stroke-width="1" fill="none" fill-rule="evenodd">
        <g id="icon/location">
            <g>
                <rect id="bounds" x="0" y="0" width="17" height="17"></rect>
                <path d="M7.5917687,13.8291568 C7.04831828,12.9562546 6.50491349,12.0433926 5.99853821,11.1367783 C5.72653573,10.649785 5.47240201,10.1771467 5.23946296,9.72311535 C4.29196111,7.87629948 3.75,6.43445648 3.75,5.6875 C3.75,3.51273223 5.51256988,1.75 7.6875,1.75 C9.86203644,1.75 11.625,3.51296356 11.625,5.6875 L13.125,5.6875 C13.125,2.68453644 10.6904636,0.25 7.6875,0.25 C4.68411183,0.25 2.25,2.68433603 2.25,5.6875 C2.25,6.7571413 2.84770328,8.34728177 3.90485908,10.4078288 C4.14627177,10.8783765 4.40870188,11.3664444 4.68896179,11.8682217 C5.20797713,12.7974668 5.76320516,13.7301907 6.31838755,14.621937 C6.51270601,14.9340556 6.69323987,15.2189177 6.85543236,15.4708999 C6.95320408,15.6227981 7.02347156,15.7304866 7.06167067,15.7883251 L7.6875,16.7359142 L8.31332933,15.7883251 C8.35152844,15.7304866 8.42179592,15.6227981 8.51956764,15.4708999 C8.68176013,15.2189177 8.86229399,14.9340556 9.05661245,14.621937 C9.61179484,13.7301907 10.1670229,12.7974668 10.6860382,11.8682217 C10.9662981,11.3664444 11.2287282,10.8783765 11.4701409,10.4078288 C12.5272967,8.34728177 13.125,6.7571413 13.125,5.6875 L11.625,5.6875 C11.625,6.43445648 11.0830389,7.87629948 10.135537,9.72311535 C9.90259799,10.1771467 9.64846427,10.649785 9.37646179,11.1367783 C8.87008651,12.0433926 8.32668172,12.9562546 7.7832313,13.8291568 C7.75091849,13.8810583 7.71900054,13.9321813 7.6875,13.9824977 C7.65599946,13.9321813 7.62408151,13.8810583 7.5917687,13.8291568 Z" id="Stroke-4" fill="#FFFFFF" fill-rule="nonzero"></path>
                <path d="M8.72727273,5.52205882 C8.72727273,6.14321579 8.22331368,6.64705882 7.60227273,6.64705882 C6.98086129,6.64705882 6.47727273,6.14347026 6.47727273,5.52205882 C6.47727273,4.90101787 6.98111576,4.39705882 7.60227273,4.39705882 C8.22305916,4.39705882 8.72727273,4.90127239 8.72727273,5.52205882 L10.2272727,5.52205882 C10.2272727,4.07284526 9.05148629,2.89705882 7.60227273,2.89705882 C6.15261132,2.89705882 4.97727273,4.07266805 4.97727273,5.52205882 C4.97727273,6.97189739 6.15243416,8.14705882 7.60227273,8.14705882 C9.05166351,8.14705882 10.2272727,6.97172023 10.2272727,5.52205882 L8.72727273,5.52205882 Z" id="Stroke-6" fill="#FFFFFF" fill-rule="nonzero"></path>
            </g>
        </g>
    </g>
</svg>