<?xml version="1.0" encoding="UTF-8"?>
<svg width="41px" height="70px" viewBox="0 0 41 70" version="1.1" xmlns="http://www.w3.org/2000/svg" xmlns:xlink="http://www.w3.org/1999/xlink">
    <!-- Generator: Sketch 47.1 (45422) - http://www.bohemiancoding.com/sketch -->
    <title>logo</title>
    <desc>Created with Sketch.</desc>
    <defs></defs>
    <g id="Symbols" stroke="none" stroke-width="1" fill="none" fill-rule="evenodd">
        <g id="nav/with-burger-open" fill="#FFFFFF" fill-opacity="0.3">
            <g id="nav/with-burger-logged-in">
                <path d="M35.3750542,43.4619974 L0,78.8370516 L0,60.4678925 L16.9439884,43.5199526 L26.1891575,34.2761007 C28.6245924,31.8406658 28.6245924,27.8799558 26.1891575,25.4445209 C23.7616256,23.016989 19.8193559,23.0117203 17.3826038,25.420812 C17.3747008,25.4313493 17.3667978,25.4379351 17.3588949,25.4458381 L0,42.8060501 L0,24.4329395 L8.17299815,16.2612585 L8.17168099,16.2599413 C8.17958397,16.249404 8.18748695,16.2415011 8.19538993,16.2349152 C10.6057987,13.796846 10.5992129,9.85457631 8.17299815,7.42967871 C5.94567505,5.2023556 2.44465505,5.01926991 0,6.86593283 L0,-7.01169949 C6.08792868,-8.21690389 12.6500361,-6.46639389 17.3588949,-1.75753517 C20.8111798,1.69474979 22.6710144,6.14412735 22.9449843,10.6725347 C27.4733917,10.9465047 31.9214521,12.8063392 35.3750542,16.2599413 C42.8749819,23.7585519 42.8749819,35.9633868 35.3750542,43.4619974" id="logo"></path>
            </g>
        </g>
    </g>
</svg>