<?xml version="1.0" encoding="UTF-8"?>
<svg width="32px" height="113px" viewBox="0 0 32 113" version="1.1" xmlns="http://www.w3.org/2000/svg" xmlns:xlink="http://www.w3.org/1999/xlink">
    <!-- Generator: Sketch 47.1 (45422) - http://www.bohemiancoding.com/sketch -->
    <title>logo-black-grey</title>
    <desc>Created with Sketch.</desc>
    <defs></defs>
    <g id="Desktop" stroke="none" stroke-width="1" fill="none" fill-rule="evenodd">
        <g id="Landing" transform="translate(-30.000000, -891.000000)">
            <g id="rammi" transform="translate(30.000000, 30.000000)">
                <g id="logo-black-grey" transform="translate(0.000000, 861.000000)">
                    <path d="M4.3895,85.2809 L31.2465,112.1379 L31.2465,98.1919 L18.3825,85.3249 L11.3635,78.3069 C9.5145,76.4579 9.5145,73.4509 11.3635,71.6019 C13.2065,69.7589 16.1995,69.7549 18.0495,71.5839 C18.0555,71.5909 18.0615,71.5969 18.0675,71.6029 L31.2465,84.7829 L31.2465,70.8339 L25.0415,64.6289 L25.0425,64.6279 C25.0365,64.6209 25.0305,64.6149 25.0245,64.6099 C23.1945,62.7589 23.1995,59.7659 25.0415,57.9249 C26.7325,56.2339 29.3905,56.0949 31.2465,57.4969 L31.2465,46.9599 C26.6245,46.0459 21.6425,47.3749 18.0675,50.9499 C15.4465,53.5709 14.0345,56.9489 13.8265,60.3869 C10.3885,60.5949 7.0115,62.0059 4.3895,64.6279 C-1.3045,70.3219 -1.3045,79.5869 4.3895,85.2809" id="Fill-64" fill="#9C9EA1"></path>
                    <path d="M26.9819,38.7249 L0.1249,65.5819 L0.1249,51.6359 L12.9889,38.7689 L20.0079,31.7509 C21.8569,29.9019 21.8569,26.8949 20.0079,25.0459 C18.1649,23.2029 15.1719,23.1989 13.3219,25.0279 C13.3159,25.0359 13.3099,25.0409 13.3039,25.0469 L0.1249,38.2269 L0.1249,24.2779 L6.3299,18.0739 L6.3289,18.0729 C6.3349,18.0649 6.3409,18.0589 6.3469,18.0539 C8.1769,16.2029 8.1719,13.2099 6.3299,11.3689 C4.6389,9.6779 1.9809,9.5389 0.1249,10.9409 L0.1249,0.4049 C4.7469,-0.5101 9.7289,0.8189 13.3039,4.3939 C15.9249,7.0149 17.3369,10.3929 17.5449,13.8309 C20.9829,14.0389 24.3599,15.4509 26.9819,18.0729 C32.6759,23.7659 32.6759,33.0319 26.9819,38.7249" id="Fill-62" fill="#232323"></path>
                </g>
            </g>
        </g>
    </g>
</svg>