<?xml version="1.0" encoding="UTF-8"?>
<svg width="249px" height="113px" viewBox="0 0 249 113" version="1.1" xmlns="http://www.w3.org/2000/svg" xmlns:xlink="http://www.w3.org/1999/xlink">
    <!-- Generator: Sketch 47.1 (45422) - http://www.bohemiancoding.com/sketch -->
    <title>logo+text</title>
    <desc>Created with Sketch.</desc>
    <defs></defs>
    <g id="Symbols" stroke="none" stroke-width="1" fill="none" fill-rule="evenodd">
        <g id="footer" transform="translate(-130.000000, -80.000000)">
            <g id="logo+text">
                <g transform="translate(130.000000, 80.000000)">
                    <path d="M53.8475,100.381 L53.7445,112.018 L56.0555,112.018 L56.0555,96.543 L53.0845,96.543 L48.8955,107.087 L44.7065,96.543 L41.7355,96.543 L41.7355,112.018 L44.0465,112.018 L43.9435,100.381 L47.8015,109.893 L49.9885,109.893 L53.8475,100.381 Z M72.2735,102.94 L65.8355,102.94 L65.8355,98.668 L72.9335,98.668 L72.9335,96.543 L63.5245,96.543 L63.5245,112.018 L72.9335,112.018 L72.9335,109.893 L65.8355,109.893 L65.8355,105.065 L72.2735,105.065 L72.2735,102.94 Z M91.1945,112.018 L91.1945,96.543 L88.9045,96.543 L88.9665,107.541 L82.2395,96.543 L80.1345,96.543 L80.1345,112.018 L82.4255,112.018 L82.3635,101.021 L89.0895,112.018 L91.1945,112.018 Z M109.7225,112.018 L109.7225,96.543 L107.4325,96.543 L107.4945,107.541 L100.7675,96.543 L98.6625,96.543 L98.6625,112.018 L100.9535,112.018 L100.8915,101.021 L107.6175,112.018 L109.7225,112.018 Z M117.5225,112.018 L119.8335,112.018 L119.8335,96.543 L117.5225,96.543 L117.5225,112.018 Z M138.6925,112.018 L138.6925,96.543 L136.4025,96.543 L136.4635,107.541 L129.7375,96.543 L127.6325,96.543 L127.6325,112.018 L129.9235,112.018 L129.8615,101.021 L136.5875,112.018 L138.6925,112.018 Z M152.2485,112.266 C154.4565,112.266 156.3135,111.75 157.1185,111.317 L157.1185,103.497 L152.0635,103.497 L152.0635,105.581 L154.8075,105.581 L154.8075,109.811 C154.3535,109.976 153.5485,110.1 152.5995,110.1 C149.4635,110.1 148.3285,108.077 148.3285,104.281 C148.3285,100.608 149.4215,98.462 152.5995,98.462 C154.0855,98.462 155.3025,98.772 156.7465,99.37 L156.7465,97.1 C155.8595,96.667 154.4355,96.296 152.3105,96.296 C147.6475,96.296 145.9555,99.411 145.9555,104.281 C145.9555,109.15 147.6475,112.266 152.2485,112.266 L152.2485,112.266 Z M173.2535,112.018 L175.7715,112.018 L170.8605,96.357 L168.5085,96.357 L163.5975,112.018 L166.1145,112.018 L167.2085,108.242 L172.1605,108.242 L173.2535,112.018 Z M171.6655,106.344 L167.7035,106.344 L169.6845,99.494 L171.6655,106.344 Z M184.8085,105.725 L188.0275,105.725 L190.8335,112.018 L193.5365,112.018 L190.2975,105.271 C192.1955,104.611 192.8145,103.146 192.8145,101.144 C192.8145,98.338 191.5355,96.543 187.5325,96.543 L182.4975,96.543 L182.4975,112.018 L184.8085,112.018 L184.8085,105.725 Z M184.8085,98.668 L187.8625,98.668 C190.0085,98.668 190.2975,99.865 190.2975,101.144 C190.2975,102.403 190.0085,103.621 187.8625,103.621 L184.8085,103.621 L184.8085,98.668 Z M211.1575,112.018 L211.1575,96.543 L208.8465,96.543 L208.8465,102.94 L202.5735,102.94 L202.5735,96.543 L200.2625,96.543 L200.2625,112.018 L202.5735,112.018 L202.5735,105.065 L208.8465,105.065 L208.8465,112.018 L211.1575,112.018 Z M224.1355,112.266 C226.2405,112.266 229.7485,111.482 229.7485,107.149 L229.7485,96.543 L227.4375,96.543 L227.4375,106.943 C227.4375,109.852 225.4155,110.161 224.1355,110.161 C222.8565,110.161 220.8345,109.852 220.8345,106.943 L220.8345,96.543 L218.5235,96.543 L218.5235,107.149 C218.5235,111.482 222.0315,112.266 224.1355,112.266 L224.1355,112.266 Z M225.1055,95.615 L227.1485,93.345 L224.3625,93.345 L223.1655,95.615 L225.1055,95.615 Z M242.1485,103.022 C240.1065,102.754 239.1575,102.465 239.1575,100.794 C239.1575,99.473 239.9825,98.483 242.3965,98.483 C243.9235,98.483 245.3265,98.792 246.4615,99.287 L246.4615,97.038 C245.6775,96.646 244.2745,96.296 242.2725,96.296 C238.0635,96.296 236.7845,98.503 236.7845,100.773 C236.7845,103.6 238.2495,104.611 242.0255,105.085 C244.1095,105.354 244.8315,105.766 244.8315,107.479 C244.8315,108.944 244.0065,110.079 241.2205,110.079 C239.1155,110.079 237.6305,109.439 236.7845,109.068 L236.7845,111.379 C237.8365,111.915 239.8175,112.266 241.3645,112.266 C245.5125,112.266 247.2455,110.265 247.2455,107.335 C247.2455,104.178 245.3675,103.455 242.1485,103.022 L242.1485,103.022 Z" id="menningarhus" fill="#9C9EA1"></path>
                    <path d="M41.5494,70.7463 L46.6904,70.7463 C50.4874,70.7463 51.7444,72.6763 51.7444,75.0413 C51.7444,76.4513 51.0284,77.8163 49.6194,78.4253 C51.4834,78.9233 52.2874,80.7023 52.2874,82.4373 C52.2874,84.9753 50.8974,87.0153 46.8424,87.0153 L41.5494,87.0153 L41.5494,70.7463 Z M46.9084,72.1123 L43.0244,72.1123 L43.0244,77.8593 L47.0804,77.8593 C49.5314,77.8593 50.1394,76.4293 50.1394,75.0413 C50.1394,73.6103 49.6624,72.1123 46.9084,72.1123 Z M43.0244,85.6483 L47.0374,85.6483 C50.0954,85.6483 50.6814,83.9993 50.6814,82.4373 C50.6814,80.2473 49.7494,79.2263 47.0804,79.2263 L43.0244,79.2263 L43.0244,85.6483 Z M54.5632,78.8803 C54.5632,74.6283 55.3222,70.5283 60.6372,70.5283 C65.9502,70.5283 66.7112,74.6283 66.7112,78.8803 C66.7112,83.1323 65.9502,87.2323 60.6372,87.2323 C55.3222,87.2323 54.5632,83.1323 54.5632,78.8803 Z M65.1482,78.8803 C65.1482,74.9753 64.5622,71.8953 60.6372,71.8953 C56.7112,71.8953 56.1242,74.9753 56.1242,78.8803 C56.1242,82.7853 56.7112,85.8653 60.6372,85.8653 C64.5622,85.8653 65.1482,82.7853 65.1482,78.8803 Z M71.1111,87.0139 L69.6361,87.0139 L69.6361,70.7449 L74.7331,70.7449 C78.7901,70.7449 80.0491,72.5249 80.0491,75.3219 C80.0491,77.4929 79.2881,79.0549 77.0541,79.6399 L80.9371,87.0139 L79.2231,87.0139 L75.5791,79.8779 C75.3421,79.9009 75.1021,79.9009 74.8631,79.9009 L71.1111,79.9009 L71.1111,87.0139 Z M71.1111,78.5339 L75.1231,78.5339 C78.0091,78.5339 78.4421,77.0589 78.4421,75.3219 C78.4421,73.5879 78.0091,72.1119 75.1231,72.1119 L71.1111,72.1119 L71.1111,78.5339 Z M82.7783,78.8803 C82.7783,74.2603 84.3183,70.5283 89.1783,70.5283 C91.4333,70.5283 92.8433,70.9843 93.7323,71.4413 L93.7323,72.9163 C92.0403,72.2203 90.9333,71.8953 89.1783,71.8953 C85.6203,71.8953 84.3413,74.9533 84.3413,78.8803 C84.3413,82.8063 85.6203,85.8653 89.1783,85.8653 C90.4153,85.8653 91.9313,85.7563 92.6913,85.3873 L92.6913,79.8343 L89.2863,79.8343 L89.2863,78.4683 L94.1663,78.4683 L94.1663,86.3423 C93.0593,86.8623 91.4543,87.2323 89.1783,87.2323 C84.3183,87.2323 82.7783,83.5003 82.7783,78.8803 Z M96.1171,87.0144 L101.8651,70.5294 L102.9491,70.5294 L108.6971,87.0144 L107.0271,87.0144 L105.5301,82.4584 L99.2841,82.4584 L97.7861,87.0144 L96.1171,87.0144 Z M99.6961,81.1794 L105.0971,81.1794 L102.4071,73.0024 L99.6961,81.1794 Z M112.3394,87.0139 L110.8644,87.0139 L110.8644,70.7449 L115.9614,70.7449 C120.0184,70.7449 121.2774,72.5249 121.2774,75.3219 C121.2774,77.4929 120.5164,79.0549 118.2814,79.6399 L122.1654,87.0139 L120.4514,87.0139 L116.8074,79.8779 C116.5694,79.9009 116.3304,79.9009 116.0914,79.9009 L112.3394,79.9009 L112.3394,87.0139 Z M112.3394,78.5339 L116.3514,78.5339 C119.2374,78.5339 119.6704,77.0589 119.6704,75.3219 C119.6704,73.5879 119.2374,72.1119 116.3514,72.1119 L112.3394,72.1119 L112.3394,78.5339 Z M124.3321,70.7463 L129.4731,70.7463 C133.2691,70.7463 134.5271,72.6763 134.5271,75.0413 C134.5271,76.4513 133.8111,77.8163 132.4021,78.4253 C134.2661,78.9233 135.0701,80.7023 135.0701,82.4373 C135.0701,84.9753 133.6801,87.0153 129.6251,87.0153 L124.3321,87.0153 L124.3321,70.7463 Z M129.6901,72.1123 L125.8071,72.1123 L125.8071,77.8593 L129.8631,77.8593 C132.3141,77.8593 132.9221,76.4293 132.9221,75.0413 C132.9221,73.6103 132.4441,72.1123 129.6901,72.1123 Z M125.8071,85.6483 L129.8201,85.6483 C132.8771,85.6483 133.4641,83.9993 133.4641,82.4373 C133.4641,80.2473 132.5321,79.2263 129.8631,79.2263 L125.8071,79.2263 L125.8071,85.6483 Z M137.3451,78.8808 C137.3451,74.6288 138.1041,70.5288 143.4191,70.5288 C148.7341,70.5288 149.4931,74.6288 149.4931,78.8808 C149.4931,83.1318 148.7341,87.2298 143.4191,87.2298 C138.1041,87.2298 137.3451,83.1318 137.3451,78.8808 Z M147.9301,78.8808 C147.9301,74.9758 147.3441,71.8948 143.4191,71.8948 C139.4931,71.8948 138.9081,74.9758 138.9081,78.8808 C138.9081,82.7848 139.4931,85.8658 143.4191,85.8658 C147.3441,85.8658 147.9301,82.7848 147.9301,78.8808 Z M142.8761,69.6618 L143.9611,67.4918 L145.9131,67.4918 L143.9611,69.6618 L142.8761,69.6618 Z M155.3034,79.1405 L153.8934,80.7675 L153.8934,87.0145 L152.4184,87.0145 L152.4184,70.7455 L153.8934,70.7455 L153.8934,78.8575 L160.6824,70.7455 L162.5914,70.7455 L156.2564,78.0345 L163.2424,87.0145 L161.3124,87.0145 L155.3034,79.1405 Z M164.2381,87.0144 L169.9861,70.5294 L171.0701,70.5294 L176.8181,87.0144 L175.1481,87.0144 L173.6511,82.4584 L167.4051,82.4584 L165.9071,87.0144 L164.2381,87.0144 Z M167.8171,81.1794 L173.2181,81.1794 L170.5271,73.0024 L167.8171,81.1794 Z M179.5936,75.0842 C179.5936,77.4052 180.9386,77.6222 183.4976,77.9472 C186.6876,78.3592 188.6606,79.1412 188.6606,82.3302 C188.6606,84.5412 187.4906,87.2312 182.6526,87.2312 C181.1566,87.2312 179.1156,86.8182 178.0976,86.3632 L178.0976,84.9532 C179.1386,85.3012 180.4176,85.8642 182.6736,85.8642 C186.0586,85.8642 187.0776,84.2802 187.0776,82.3302 C187.0776,80.0082 186.1236,79.5522 183.4116,79.2052 C179.5716,78.7292 178.0976,77.8402 178.0976,75.0622 C178.0976,73.1742 179.0086,70.5292 183.5626,70.5292 C185.5586,70.5292 186.9046,70.8762 187.7936,71.2882 L187.7936,72.7412 C186.3186,72.1122 185.1466,71.8952 183.5416,71.8952 C180.3316,71.8952 179.5936,73.3692 179.5936,75.0842 Z M189.9393,87.0144 L195.6873,70.5294 L196.7713,70.5294 L202.5193,87.0144 L200.8493,87.0144 L199.3523,82.4584 L193.1063,82.4584 L191.6083,87.0144 L189.9393,87.0144 Z M193.5183,81.1794 L198.9193,81.1794 L196.2283,73.0024 L193.5183,81.1794 Z M213.1463,79.2271 L206.1613,79.2271 L206.1613,87.0141 L204.6863,87.0141 L204.6863,70.7471 L213.9043,70.7471 L213.9043,72.1111 L206.1613,72.1111 L206.1613,77.8601 L213.1463,77.8601 L213.1463,79.2271 Z M226.7875,87.0144 L218.0455,73.7604 L218.0895,87.0144 L216.6155,87.0144 L216.6155,70.7454 L217.7195,70.7454 L226.4625,83.9994 L226.4205,70.7454 L227.8945,70.7454 L227.8945,87.0144 L226.7875,87.0144 Z M231.58,87.014 L231.58,70.745 L233.098,70.745 L233.098,87.014 L231.58,87.014 Z M235.4837,78.0125 L237.4357,78.0125 L237.4357,70.7455 L241.8607,70.7455 C247.1747,70.7455 248.7147,74.2595 248.7147,78.8815 C248.7147,83.5005 247.1747,87.0135 241.8607,87.0135 L237.4357,87.0135 L237.4357,79.1615 L235.4837,79.1615 L235.4837,78.0125 Z M238.9097,78.0125 L242.8787,78.0125 L242.8787,79.1615 L238.9097,79.1615 L238.9097,85.6485 L241.9477,85.6485 C245.8507,85.6485 247.1527,82.7845 247.1527,78.8815 C247.1527,74.9755 245.8507,72.1125 241.9477,72.1125 L238.9097,72.1125 L238.9097,78.0125 Z" id="borgarbokasafnid" fill="#FFFFFF"></path>
                    <path d="M4.3895,85.2809 L31.2465,112.1379 L31.2465,98.1919 L18.3825,85.3249 L11.3635,78.3069 C9.5145,76.4579 9.5145,73.4509 11.3635,71.6019 C13.2065,69.7589 16.1995,69.7549 18.0495,71.5839 C18.0555,71.5909 18.0615,71.5969 18.0675,71.6029 L31.2465,84.7829 L31.2465,70.8339 L25.0415,64.6289 L25.0425,64.6279 C25.0365,64.6209 25.0305,64.6149 25.0245,64.6099 C23.1945,62.7589 23.1995,59.7659 25.0415,57.9249 C26.7325,56.2339 29.3905,56.0949 31.2465,57.4969 L31.2465,46.9599 C26.6245,46.0459 21.6425,47.3749 18.0675,50.9499 C15.4465,53.5709 14.0345,56.9489 13.8265,60.3869 C10.3885,60.5949 7.0115,62.0059 4.3895,64.6279 C-1.3045,70.3219 -1.3045,79.5869 4.3895,85.2809" id="Fill-64" fill="#9C9EA1"></path>
                    <path d="M26.9819,38.7249 L0.1249,65.5819 L0.1249,51.6359 L12.9889,38.7689 L20.0079,31.7509 C21.8569,29.9019 21.8569,26.8949 20.0079,25.0459 C18.1649,23.2029 15.1719,23.1989 13.3219,25.0279 C13.3159,25.0359 13.3099,25.0409 13.3039,25.0469 L0.1249,38.2269 L0.1249,24.2779 L6.3299,18.0739 L6.3289,18.0729 C6.3349,18.0649 6.3409,18.0589 6.3469,18.0539 C8.1769,16.2029 8.1719,13.2099 6.3299,11.3689 C4.6389,9.6779 1.9809,9.5389 0.1249,10.9409 L0.1249,0.4049 C4.7469,-0.5101 9.7289,0.8189 13.3039,4.3939 C15.9249,7.0149 17.3369,10.3929 17.5449,13.8309 C20.9829,14.0389 24.3599,15.4509 26.9819,18.0729 C32.6759,23.7659 32.6759,33.0319 26.9819,38.7249" id="Fill-62" fill="#FFFFFF"></path>
                </g>
            </g>
        </g>
    </g>
</svg>