<?xml version="1.0" encoding="UTF-8"?>
<svg width="178px" height="39px" viewBox="0 0 178 39" version="1.1" xmlns="http://www.w3.org/2000/svg" xmlns:xlink="http://www.w3.org/1999/xlink">
    <!-- Generator: Sketch 47.1 (45422) - http://www.bohemiancoding.com/sketch -->
    <title>logotext</title>
    <desc>Created with Sketch.</desc>
    <defs></defs>
    <g id="Symbols" stroke="none" stroke-width="1" fill="none" fill-rule="evenodd">
        <g id="nav/with-burger-open" transform="translate(-80.000000, -15.000000)" fill="#FFFFFF">
            <g id="nav/with-burger-logged-in">
                <g id="logotext" transform="translate(80.000000, 15.000000)">
                    <path d="M10.431726,28.9497912 L10.3430149,38.7902859 L12.3334144,38.7902859 L12.3334144,25.7042968 L9.77457545,25.7042968 L6.16670722,34.6205275 L2.55883899,25.7042968 L0,25.7042968 L0,38.7902859 L1.99039949,38.7902859 L1.90168848,28.9497912 L5.22447569,36.9933407 L7.10807747,36.9933407 L10.431726,28.9497912 Z M26.301523,31.1137361 L20.7566542,31.1137361 L20.7566542,27.501242 L26.8699625,27.501242 L26.8699625,25.7042968 L18.7662547,25.7042968 L18.7662547,38.7902859 L26.8699625,38.7902859 L26.8699625,36.9933407 L20.7566542,36.9933407 L20.7566542,32.9106813 L26.301523,32.9106813 L26.301523,31.1137361 Z M42.5976497,38.7902859 L42.5976497,25.7042968 L40.625337,25.7042968 L40.6787358,35.0044395 L34.8849594,25.7042968 L33.0719819,25.7042968 L33.0719819,38.7902859 L35.045156,38.7902859 L34.9917571,29.4909888 L40.7846723,38.7902859 L42.5976497,38.7902859 Z M58.5552966,38.7902859 L58.5552966,25.7042968 L56.5829838,25.7042968 L56.6363827,35.0044395 L50.8426062,25.7042968 L49.0296287,25.7042968 L49.0296287,38.7902859 L51.0028028,38.7902859 L50.9494039,29.4909888 L56.7423191,38.7902859 L58.5552966,38.7902859 Z M65.2732178,38.7902859 L67.2636173,38.7902859 L67.2636173,25.7042968 L65.2732178,25.7042968 L65.2732178,38.7902859 Z M83.5063452,38.7902859 L83.5063452,25.7042968 L81.5340324,25.7042968 L81.58657,35.0044395 L75.7936548,25.7042968 L73.9806773,25.7042968 L73.9806773,38.7902859 L75.9538514,38.7902859 L75.9004525,29.4909888 L81.6933677,38.7902859 L83.5063452,38.7902859 Z M95.1817478,39 C97.0834363,39 98.6828184,38.5636594 99.3761423,38.1975054 L99.3761423,31.5847471 L95.0224125,31.5847471 L95.0224125,33.3470218 L97.3857428,33.3470218 L97.3857428,36.9239998 C96.9947253,37.0635273 96.3014014,37.1683843 95.4840543,37.1683843 C92.7831054,37.1683843 91.8055618,35.4576925 91.8055618,32.2477142 C91.8055618,29.1417473 92.746932,27.327044 95.4840543,27.327044 C96.7639044,27.327044 97.8120724,27.5891866 99.0557491,28.0948681 L99.0557491,26.1753079 C98.2918009,25.8091539 97.0653496,25.4954284 95.2351467,25.4954284 C91.2190356,25.4954284 89.7617634,28.1295386 89.7617634,32.2477142 C89.7617634,36.3650441 91.2190356,39 95.1817478,39 L95.1817478,39 Z M113.272765,38.7902859 L115.441448,38.7902859 L111.211742,25.5470113 L109.18603,25.5470113 L104.956323,38.7902859 L107.124145,38.7902859 L108.066376,35.59722 L112.331395,35.59722 L113.272765,38.7902859 Z M111.905065,33.9922309 L108.492706,33.9922309 L110.198886,28.1997252 L111.905065,33.9922309 Z M123.224763,33.4687913 L125.997197,33.4687913 L128.413926,38.7902859 L130.741944,38.7902859 L127.952285,33.0848792 C129.586979,32.5267692 130.120106,31.287934 130.120106,29.5950003 C130.120106,27.222187 129.018539,25.7042968 125.570868,25.7042968 L121.234363,25.7042968 L121.234363,38.7902859 L123.224763,38.7902859 L123.224763,33.4687913 Z M123.224763,27.501242 L125.855087,27.501242 C127.703377,27.501242 127.952285,28.5134507 127.952285,29.5950003 C127.952285,30.6596374 127.703377,31.6896041 125.855087,31.6896041 L123.224763,31.6896041 L123.224763,27.501242 Z M145.918418,38.7902859 L145.918418,25.7042968 L143.928018,25.7042968 L143.928018,31.1137361 L138.525259,31.1137361 L138.525259,25.7042968 L136.53486,25.7042968 L136.53486,38.7902859 L138.525259,38.7902859 L138.525259,32.9106813 L143.928018,32.9106813 L143.928018,38.7902859 L145.918418,38.7902859 Z M157.096005,39 C158.908983,39 161.930325,38.3370329 161.930325,34.672956 L161.930325,25.7042968 L159.939925,25.7042968 L159.939925,34.498758 C159.939925,36.9586703 158.198433,37.2199672 157.096005,37.2199672 C155.994438,37.2199672 154.252946,36.9586703 154.252946,34.498758 L154.252946,25.7042968 L152.262547,25.7042968 L152.262547,34.672956 C152.262547,38.3370329 155.283889,39 157.096005,39 L157.096005,39 Z M157.931439,24.9195603 L159.691017,23 L157.291514,23 L156.260571,24.9195603 L157.931439,24.9195603 Z M172.610097,31.183077 C170.851379,30.9564505 170.034032,30.712066 170.034032,29.2990328 C170.034032,28.1819671 170.744582,27.3448021 172.823692,27.3448021 C174.138855,27.3448021 175.347219,27.606099 176.324763,28.0246816 L176.324763,26.1228793 C175.649526,25.7913958 174.441161,25.4954284 172.716895,25.4954284 C169.091801,25.4954284 167.990234,27.3617145 167.990234,29.2812748 C167.990234,31.6718461 169.251997,32.5267692 172.50416,32.9275937 C174.299051,33.1550658 174.920889,33.5034618 174.920889,34.952011 C174.920889,36.1908461 174.21034,37.1506263 171.810836,37.1506263 C169.997859,37.1506263 168.71887,36.6094287 167.990234,36.2957032 L167.990234,38.2499339 C168.896292,38.7031869 170.602472,39 171.93486,39 C175.507416,39 177,37.3079118 177,34.8302415 C177,32.1606152 175.382531,31.549231 172.610097,31.183077 L172.610097,31.183077 Z" id="menningarhus"></path>
                    <path d="M0,2.8026899 L4.4172359,2.8026899 C7.67968381,2.8026899 8.7597199,4.4647552 8.7597199,6.50143107 C8.7597199,7.71568603 8.14452034,8.89118817 6.93388323,9.41564297 C8.53546419,9.84450748 9.22627486,11.3765355 9.22627486,12.870672 C9.22627486,15.0563309 8.03196288,16.8131253 4.54783692,16.8131253 L0,16.8131253 L0,2.8026899 Z M4.60454526,3.97905322 L1.26734545,3.97905322 L1.26734545,8.92821864 L4.75233063,8.92821864 C6.85827211,8.92821864 7.3806762,7.6967402 7.3806762,6.50143107 C7.3806762,5.26909146 6.97082957,3.97905322 4.60454526,3.97905322 Z M1.26734545,15.6359008 L4.71538428,15.6359008 C7.34287064,15.6359008 7.84637196,14.2158253 7.84637196,12.870672 C7.84637196,10.9847015 7.04558148,10.1054431 4.75233063,10.1054431 L1.26734545,10.1054431 L1.26734545,15.6359008 Z M11.1816815,9.80747701 C11.1816815,6.14576632 11.8338274,2.61495403 16.4005671,2.61495403 C20.9655883,2.61495403 21.6194527,6.14576632 21.6194527,9.80747701 C21.6194527,13.4691877 20.9655883,17 16.4005671,17 C11.8338274,17 11.1816815,13.4691877 11.1816815,9.80747701 Z M20.2764961,9.80747701 C20.2764961,6.4445936 19.7729948,3.79217852 16.4005671,3.79217852 C13.0272801,3.79217852 12.5229196,6.4445936 12.5229196,9.80747701 C12.5229196,13.1703604 13.0272801,15.8227755 16.4005671,15.8227755 C19.7729948,15.8227755 20.2764961,13.1703604 20.2764961,9.80747701 Z M25.3999227,16.8119197 L24.1325772,16.8119197 L24.1325772,2.80148426 L28.5120076,2.80148426 C31.997852,2.80148426 33.0796065,4.3343735 33.0796065,6.74307642 C33.0796065,8.61268458 32.4257421,9.95783795 30.5062508,10.4616246 L33.8425914,16.8119197 L32.369893,16.8119197 L29.2389054,10.6665839 C29.0352709,10.6863909 28.8290587,10.6863909 28.6237058,10.6863909 L25.3999227,10.6863909 L25.3999227,16.8119197 Z M25.3999227,9.50916643 L28.8471023,9.50916643 C31.3268033,9.50916643 31.6988444,8.23893518 31.6988444,6.74307642 C31.6988444,5.24980117 31.3268033,3.97870875 28.8471023,3.97870875 L25.3999227,3.97870875 L25.3999227,9.50916643 Z M35.4245822,9.80747701 C35.4245822,5.82885439 36.7477768,2.61495403 40.9235726,2.61495403 C42.8611075,2.61495403 44.0726039,3.00764925 44.836448,3.40120564 L44.836448,4.67143689 C43.3826524,4.07205998 42.4314989,3.79217852 40.9235726,3.79217852 C37.8664776,3.79217852 36.7675388,6.42564778 36.7675388,9.80747701 C36.7675388,13.1884451 37.8664776,15.8227755 40.9235726,15.8227755 C41.9864244,15.8227755 43.2889977,15.7289076 43.9420028,15.4111345 L43.9420028,10.6290368 L41.0163681,10.6290368 L41.0163681,9.45267344 L45.2093483,9.45267344 L45.2093483,16.2335554 C44.2581948,16.6813657 42.8791511,17 40.9235726,17 C36.7477768,17 35.4245822,13.7860996 35.4245822,9.80747701 Z M46.8855093,16.8123502 L51.8242901,2.61590132 L52.7556816,2.61590132 L57.6944623,16.8123502 L56.2595695,16.8123502 L54.9733213,12.8888427 L49.6066503,12.8888427 L48.3195429,16.8123502 L46.8855093,16.8123502 Z M49.9606478,11.7874015 L54.6012802,11.7874015 L52.2899858,4.74558395 L49.9606478,11.7874015 Z M60.8239893,16.8119197 L59.5566439,16.8119197 L59.5566439,2.80148426 L63.9360742,2.80148426 C67.4219186,2.80148426 68.5036732,4.3343735 68.5036732,6.74307642 C68.5036732,8.61268458 67.8498088,9.95783795 65.9294583,10.4616246 L69.2666581,16.8119197 L67.7939597,16.8119197 L64.662972,10.6665839 C64.4584783,10.6863909 64.2531254,10.6863909 64.0477725,10.6863909 L60.8239893,10.6863909 L60.8239893,16.8119197 Z M60.8239893,9.50916643 L64.271169,9.50916643 C66.75087,9.50916643 67.122911,8.23893518 67.122911,6.74307642 C67.122911,5.24980117 66.75087,3.97870875 64.271169,3.97870875 L60.8239893,3.97870875 L60.8239893,9.50916643 Z M71.1283241,2.8026899 L75.54556,2.8026899 C78.8071487,2.8026899 79.888044,4.4647552 79.888044,6.50143107 C79.888044,7.71568603 79.2728444,8.89118817 78.0622073,9.41564297 C79.6637883,9.84450748 80.354599,11.3765355 80.354599,12.870672 C80.354599,15.0563309 79.160287,16.8131253 75.676161,16.8131253 L71.1283241,16.8131253 L71.1283241,2.8026899 Z M75.7320101,3.97905322 L72.3956695,3.97905322 L72.3956695,8.92821864 L75.8806547,8.92821864 C77.9865962,8.92821864 78.5090003,7.6967402 78.5090003,6.50143107 C78.5090003,5.26909146 78.0982945,3.97905322 75.7320101,3.97905322 Z M72.3956695,15.6359008 L75.8437084,15.6359008 C78.4703355,15.6359008 78.9746961,14.2158253 78.9746961,12.870672 C78.9746961,10.9847015 78.1739056,10.1054431 75.8806547,10.1054431 L72.3956695,10.1054431 L72.3956695,15.6359008 Z M82.3093182,9.8079076 C82.3093182,6.1461969 82.9614641,2.61538462 87.5282038,2.61538462 C92.0949435,2.61538462 92.7470894,6.1461969 92.7470894,9.8079076 C92.7470894,13.4687571 92.0949435,16.9978471 87.5282038,16.9978471 C82.9614641,16.9978471 82.3093182,13.4687571 82.3093182,9.8079076 Z M91.4041328,9.8079076 C91.4041328,6.44502419 90.9006315,3.79174793 87.5282038,3.79174793 C84.1549169,3.79174793 83.6522748,6.44502419 83.6522748,9.8079076 C83.6522748,13.1699298 84.1549169,15.8232061 87.5282038,15.8232061 C90.9006315,15.8232061 91.4041328,13.1699298 91.4041328,9.8079076 Z M87.0616488,1.86874699 L87.9938996,0 L89.6710916,0 L87.9938996,1.86874699 L87.0616488,1.86874699 Z M97.7393994,10.0315544 L96.5279031,11.4326841 L96.5279031,16.8124364 L95.2605576,16.8124364 L95.2605576,2.80200096 L96.5279031,2.80200096 L96.5279031,9.78784225 L102.361129,2.80200096 L104.001375,2.80200096 L98.5582334,9.07909627 L104.560725,16.8124364 L102.902436,16.8124364 L97.7393994,10.0315544 Z M105.416248,16.8123502 L110.355029,2.61590132 L111.28642,2.61590132 L116.225201,16.8123502 L114.790308,16.8123502 L113.50406,12.8888427 L108.137389,12.8888427 L106.850281,16.8123502 L105.416248,16.8123502 Z M108.491386,11.7874015 L113.132019,11.7874015 L110.819865,4.74558395 L108.491386,11.7874015 Z M118.609958,6.53837542 C118.609958,8.53715965 119.765606,8.72403435 121.964342,9.00391581 C124.705246,9.35871938 126.400481,10.0321572 126.400481,12.7784403 C126.400481,14.6824954 125.395197,16.9990527 121.238304,16.9990527 C119.952915,16.9990527 118.199252,16.643388 117.324569,16.2515539 L117.324569,15.037299 C118.219014,15.3369874 119.317953,15.8218282 121.256347,15.8218282 C124.164798,15.8218282 125.04034,14.457729 125.04034,12.7784403 C125.04034,10.7787949 124.220647,10.3860996 121.89045,10.0872724 C118.591056,9.67735366 117.324569,8.91177022 117.324569,6.5194296 C117.324569,4.8935336 118.107316,2.61572908 122.020192,2.61572908 C123.735189,2.61572908 124.891696,2.91455637 125.65554,3.26935995 L125.65554,4.52064537 C124.388194,3.9789671 123.381192,3.7920924 122.002148,3.7920924 C119.244061,3.7920924 118.609958,5.06146248 118.609958,6.53837542 Z M127.499162,16.8123502 L132.437943,2.61590132 L133.369335,2.61590132 L138.308115,16.8123502 L136.873222,16.8123502 L135.586974,12.8888427 L130.220303,12.8888427 L128.933196,16.8123502 L127.499162,16.8123502 Z M130.574301,11.7874015 L135.214933,11.7874015 L132.90278,4.74558395 L130.574301,11.7874015 Z M147.439017,10.1061321 L141.437385,10.1061321 L141.437385,16.8120919 L140.170039,16.8120919 L140.170039,2.80337884 L148.090304,2.80337884 L148.090304,3.97801981 L141.437385,3.97801981 L141.437385,8.92890758 L147.439017,8.92890758 L147.439017,10.1061321 Z M159.159771,16.8123502 L151.648494,5.39835364 L151.6863,16.8123502 L150.419814,16.8123502 L150.419814,2.80191485 L151.368389,2.80191485 L158.880526,14.2159115 L158.844439,2.80191485 L160.110925,2.80191485 L160.110925,16.8123502 L159.159771,16.8123502 Z M163.27757,16.8120058 L163.27757,2.80157038 L164.581862,2.80157038 L164.581862,16.8120058 L163.27757,16.8120058 Z M166.631697,9.06015045 L168.308889,9.06015045 L168.308889,2.80200096 L172.110925,2.80200096 C176.676805,2.80200096 178,5.82816545 178,9.80851042 C178,13.7862719 176.676805,16.8115752 172.110925,16.8115752 L168.308889,16.8115752 L168.308889,10.0496391 L166.631697,10.0496391 L166.631697,9.06015045 Z M169.575375,9.06015045 L172.985608,9.06015045 L172.985608,10.0496391 L169.575375,10.0496391 L169.575375,15.636073 L172.185677,15.636073 C175.539202,15.636073 176.657903,13.1696715 176.657903,9.80851042 C176.657903,6.44476584 175.539202,3.97922545 172.185677,3.97922545 L169.575375,3.97922545 L169.575375,9.06015045 Z" id="borgarbokasafnid"></path>
                </g>
            </g>
        </g>
    </g>
</svg>