<?xml version="1.0" encoding="UTF-8"?>
<svg width="17px" height="17px" viewBox="0 0 17 17" version="1.1" xmlns="http://www.w3.org/2000/svg" xmlns:xlink="http://www.w3.org/1999/xlink">
    <!-- Generator: Sketch 47.1 (45422) - http://www.bohemiancoding.com/sketch -->
    <title>icon/mail</title>
    <desc>Created with Sketch.</desc>
    <defs></defs>
    <g id="Symbols" stroke="none" stroke-width="1" fill="none" fill-rule="evenodd">
        <g id="icon/mail">
            <g>
                <rect id="bounds" x="0" y="0" width="17" height="17"></rect>
                <path d="M8.5,9.09861218 L1.41602515,4.37596228 C1.07137863,4.14619793 0.605726624,4.23932834 0.375962279,4.58397485 C0.146197935,4.92862137 0.239328336,5.39427338 0.583974853,5.62403772 L8.08397485,10.6240377 C8.33589941,10.7919874 8.66410059,10.7919874 8.91602515,10.6240377 L16.4160251,5.62403772 C16.7606717,5.39427338 16.8538021,4.92862137 16.6240377,4.58397485 C16.3942734,4.23932834 15.9286214,4.14619793 15.5839749,4.37596228 L8.5,9.09861218 Z" id="Path-4" fill="#FFFFFF" fill-rule="nonzero"></path>
                <path d="M1.75,3.75 L1.75,13.25 L15.25,13.25 L15.25,3.75 L1.75,3.75 Z M1,2.25 L16,2.25 C16.4142136,2.25 16.75,2.58578644 16.75,3 L16.75,14 C16.75,14.4142136 16.4142136,14.75 16,14.75 L1,14.75 C0.585786438,14.75 0.25,14.4142136 0.25,14 L0.25,3 C0.25,2.58578644 0.585786438,2.25 1,2.25 Z" id="Rectangle-6" fill="#FFFFFF" fill-rule="nonzero"></path>
            </g>
        </g>
    </g>
</svg>