<?xml version="1.0" encoding="UTF-8"?>
<svg width="17px" height="17px" viewBox="0 0 17 17" version="1.1" xmlns="http://www.w3.org/2000/svg" xmlns:xlink="http://www.w3.org/1999/xlink">
    <!-- Generator: Sketch 47.1 (45422) - http://www.bohemiancoding.com/sketch -->
    <title>icon/phone</title>
    <desc>Created with Sketch.</desc>
    <defs></defs>
    <g id="Symbols" stroke="none" stroke-width="1" fill="none" fill-rule="evenodd">
        <g id="icon/phone">
            <g>
                <rect id="bounds" x="0" y="0" width="17" height="17"></rect>
                <path d="M11.104378,9.95861262 C12.0138002,9.04815465 13.4884543,9.04815465 14.3955708,9.95831938 L16.0674794,11.6302833 C16.9774578,12.5382781 16.9774578,14.012712 16.0682641,14.9209292 L15.1512513,15.8386538 C14.1057172,16.8851202 12.4653105,17.0493517 11.2300396,16.2326986 C7.11616114,13.5109067 3.48856442,9.88301235 0.767725293,5.76925313 C-0.04948899,4.53261487 0.114441504,2.89722258 1.16202656,1.84960361 L2.07907584,0.931160569 C2.98831497,0.0228975753 4.46183711,0.0228975753 5.37036384,0.931453979 L7.04383562,2.60498057 C7.95132428,3.51350499 7.95132428,4.98680631 7.04383562,5.89533072 L6.97112169,5.96795886 C8.19936317,7.40769774 9.59381978,8.80259415 11.0324312,10.0304737 L11.104378,9.95861262 Z M5.98286441,3.66532953 L4.30968635,1.99209683 C3.98685222,1.66925215 3.46265158,1.66925215 3.13985391,1.99170238 L2.22309819,2.90985201 C1.67944596,3.453522 1.59461324,4.29982437 2.01899615,4.94201607 C4.62841895,8.88731983 8.11199412,12.3711808 12.0574898,14.9815687 C12.6982441,15.4051793 13.5490696,15.3199978 14.0901491,14.7784358 L15.0076831,13.8601901 C15.3307233,13.5374967 15.3307233,13.0141426 15.0073896,12.6915131 L13.3340136,11.018081 C13.0120126,10.6949985 12.4889439,10.6949985 12.1650241,11.0192865 L11.6072981,11.5763489 C11.334656,11.8486665 10.9000155,11.8700615 10.601947,11.6258367 C8.72992434,10.0919807 6.90971618,8.27117404 5.3752418,6.39757812 C5.13090327,6.09924035 5.15262242,5.66423567 5.42546284,5.3917199 L5.98283078,4.83501515 C6.30507924,4.51211694 6.30499262,3.98782556 5.98286441,3.66532953 Z" id="Stroke-457" fill="#FFFFFF" fill-rule="nonzero"></path>
            </g>
        </g>
    </g>
</svg>