<?xml version="1.0" encoding="UTF-8"?>
<svg width="30px" height="30px" viewBox="0 0 30 30" version="1.1" xmlns="http://www.w3.org/2000/svg" xmlns:xlink="http://www.w3.org/1999/xlink">
    <!-- Generator: Sketch 47.1 (45422) - http://www.bohemiancoding.com/sketch -->
    <title>twitter</title>
    <desc>Created with Sketch.</desc>
    <defs></defs>
    <g id="Symbols" stroke="none" stroke-width="1" fill="none" fill-rule="evenodd">
        <g id="footer" transform="translate(-1176.000000, -220.000000)" fill="#FFFFFF">
            <g id="social">
                <g transform="translate(1122.000000, 178.000000)">
                    <path d="M54,42 L84,42 L84,72 L54,72 L54,42 Z M66.2173193,63.8181818 C71.8779797,63.8181818 74.9735747,59.0969997 74.9735747,55.0029573 C74.9735747,54.8688591 74.9708616,54.7353689 74.9648869,54.6024818 C75.5657847,54.1651562 76.0880594,53.6194089 76.5,52.9981474 C75.9485814,53.2448987 75.3551835,53.4110076 74.7326921,53.4859086 C75.3680693,53.102343 75.8558646,52.4955894 76.0859956,51.7722707 C75.4913897,52.1271448 74.8329088,52.3850697 74.1317943,52.5243215 C73.5702081,51.9221133 72.7706889,51.5454545 71.8853991,51.5454545 C70.1858922,51.5454545 68.8077233,52.9329555 68.8077233,54.6432489 C68.8077233,54.8863719 68.8347229,55.1228567 68.8875242,55.3496932 C66.3297574,55.2201252 64.0617181,53.9872758 62.5438195,52.1126471 C62.2795212,52.5705056 62.1271222,53.1023582 62.1271222,53.6698547 C62.1271222,54.7447486 62.6704369,55.6936673 63.4966336,56.2487995 C62.9917244,56.2330946 62.5174189,56.0935601 62.1028608,55.8613066 C62.1024078,55.8743054 62.1024078,55.8869785 62.1024078,55.9008712 C62.1024078,57.4013242 63.1632154,58.6540833 64.5713839,58.9379583 C64.3127834,59.0089321 64.0407033,59.0469882 63.759885,59.0469882 C63.5618877,59.0469882 63.3689844,59.0273693 63.1814869,58.9911152 C63.5732836,60.2221352 64.7094022,61.1179477 66.0563635,61.1429806 C65.0030558,61.9741332 63.6761781,62.4691662 62.2340839,62.4691662 C61.9859832,62.4691662 61.7408876,62.4549592 61.5,62.4262788 C62.8620115,63.3051663 64.4792711,63.8179857 66.2174854,63.8179857 L66.2173193,63.8181818 Z" id="twitter"></path>
                </g>
            </g>
        </g>
    </g>
</svg>