<?xml version="1.0" encoding="UTF-8"?>
<svg width="17px" height="17px" viewBox="0 0 17 17" version="1.1" xmlns="http://www.w3.org/2000/svg" xmlns:xlink="http://www.w3.org/1999/xlink">
    <!-- Generator: Sketch 47.1 (45422) - http://www.bohemiancoding.com/sketch -->
    <title>icon/user</title>
    <desc>Created with Sketch.</desc>
    <defs></defs>
    <g id="Symbols" stroke="none" stroke-width="1" fill="none" fill-rule="evenodd">
        <g id="icon/user">
            <g>
                <rect id="bounds" x="0" y="0" width="17" height="17"></rect>
                <path d="M8,9.75 C5.37664744,9.75 3.25,7.62335256 3.25,5 C3.25,2.37664744 5.37664744,0.25 8,0.25 C10.6233526,0.25 12.75,2.37664744 12.75,5 C12.75,7.62335256 10.6233526,9.75 8,9.75 Z M8,8.25 C9.79492544,8.25 11.25,6.79492544 11.25,5 C11.25,3.20507456 9.79492544,1.75 8,1.75 C6.20507456,1.75 4.75,3.20507456 4.75,5 C4.75,6.79492544 6.20507456,8.25 8,8.25 Z" id="Oval" fill="#FFFFFF" fill-rule="nonzero"></path>
                <path d="M2.75,14 L2.75,15 C2.75,15.1380712 2.86192881,15.25 3,15.25 L13,15.25 C13.1380712,15.25 13.25,15.1380712 13.25,15 L13.25,14 C13.25,11.9171714 12.0258952,10.0642903 10.1788556,9.22175825 C9.51235637,9.56639403 8.76905543,9.75 8,9.75 C7.23094457,9.75 6.48764363,9.56639403 5.82114444,9.22175825 C3.97410476,10.0642903 2.75,11.9171714 2.75,14 Z M14.75,14 L14.75,15 C14.75,15.9664983 13.9664983,16.75 13,16.75 L3,16.75 C2.03350169,16.75 1.25,15.9664983 1.25,15 L1.25,14 C1.25,11.1717034 3.00569248,8.67328153 5.60673848,7.68678311 L5.9559799,7.55432636 L6.2721219,7.75324493 C6.78550794,8.07627073 7.37899614,8.25 8,8.25 C8.62100386,8.25 9.21449206,8.07627073 9.7278781,7.75324493 L10.0440201,7.55432636 L10.3932615,7.68678311 C12.9943075,8.67328153 14.75,11.1717034 14.75,14 Z" id="Combined-Shape" fill="#FFFFFF" fill-rule="nonzero"></path>
            </g>
        </g>
    </g>
</svg>